<svg width="106" height="140" viewBox="0 0 106 140" fill="none" xmlns="http://www.w3.org/2000/svg">
<path d="M101.907 4.0987V135.901H4.09266V4.0987H101.907ZM106 0H0V140H106V0Z" fill="#497889"/>
<path d="M106 140H0V0H40.0496V105.512H106V140Z" fill="#002A3D"/>
<path d="M40.0496 105.513L0 140H106V105.513H40.0496Z" fill="#497889"/>
<path d="M85.6535 41.1623C81.7363 37.5906 77.0005 35.834 71.3877 35.834C65.7749 35.834 61.0391 37.5906 57.1218 41.1623C53.2045 44.734 51.2751 49.3012 51.2751 54.8051C51.2751 66.1058 67.9966 80.2756 71.3877 80.2756C74.6033 80.2756 91.5002 65.6374 91.5002 54.8051C91.5002 49.3012 89.5708 44.734 85.6535 41.1623ZM77.0589 56.2689C77.0005 56.3275 76.942 56.3861 76.8835 56.4446C76.7666 56.5617 76.6497 56.7374 76.5327 56.8545C75.6557 57.7913 74.6618 58.4354 73.6094 58.7867L75.9481 69.8532H66.7688L68.9321 58.6696C67.9381 58.3183 67.0611 57.6742 66.3011 56.8545C66.1841 56.7374 66.0672 56.6203 65.9503 56.5032C64.6055 54.9808 63.9624 53.1656 63.9624 50.9992C63.9624 48.7156 64.664 46.7834 66.1257 45.261C67.5873 43.7386 69.3413 42.9189 71.4461 42.9189C73.4925 42.9189 75.3049 43.6801 76.7666 45.261C78.2283 46.7834 78.9299 48.7156 78.9299 50.9992C78.8714 53.0485 78.2867 54.8051 77.0589 56.2689Z" fill="#002A3D"/>
</svg>
